<svg id="Layer_1" data-name="Layer 1" xmlns="http://www.w3.org/2000/svg" width="400" height="400" viewBox="0 0 400 400"><title>logo</title><g id="Pa20Qy.tif"><path d="M0,400V0H400V400ZM250.1,87.17c-1.92-.16-3.23-.36-4.53-.36q-76.74,0-153.49-.1c-4.24,0-5.41,1.54-5.36,5.55.19,13.5.09,27,.08,40.5q0,87-.08,174c0,4.36.59,6.82,5.87,6.59,8.82-.4,17.68-.43,26.49,0,5.17.25,6.34-1.45,6.32-6.45-.18-58.49-.11-117-.11-175.48v-5.82H212V249.91H250.1ZM149.87,313.22h156c7.39,0,7.4,0,7.4-7.38q0-80,0-160c0-17.83-.12-35.66.1-53.49.05-4.45-1.48-5.79-5.79-5.66-8.65.27-17.33.08-26,.09-6.8,0-6.81,0-6.81,6.72V274.28H187.87V150.05h-38Z" style="fill:#fff"/></g></svg>