<?xml version="1.0" encoding="utf-8"?>
<!-- Generator: Adobe Illustrator 22.1.0, SVG Export Plug-In . SVG Version: 6.00 Build 0)  -->
<svg version="1.1" xmlns="http://www.w3.org/2000/svg" xmlns:xlink="http://www.w3.org/1999/xlink" x="0px" y="0px"
	 viewBox="0 0 74.7 94.9" style="enable-background:new 0 0 74.7 94.9;" xml:space="preserve">
<style type="text/css">
	.st0{fill:#505050;}
</style>
<g id="Layer_2">
</g>
<g id="Layer_1">
	<path class="st0" d="M44.8,91.9l26.8-26.8c4.1-4.1,4.1-10.8,0-14.9s-10.8-4.1-14.9,0L47.9,59V10.5C47.9,4.7,43.2,0,37.4,0
		S26.9,4.7,26.9,10.5v48.6L18,50.2c-4.1-4.1-10.8-4.1-14.9,0C1,52.3,0,54.9,0,57.6S1,63,3.1,65l26.8,26.8c2,2,4.6,3.1,7.4,3.1
		C40.2,95,42.9,93.9,44.8,91.9z"/>
</g>
</svg>
