<svg id="Layer_1" fill="#909090" data-name="Layer 1" xmlns="http://www.w3.org/2000/svg" width="65.54" height="65.54" viewBox="0 0 65.54 65.54"><title>icon</title><g id="edit"><path d="M13.76,60.19a5.07,5.07,0,0,0,5.15,4.63H47a5,5,0,0,0,5.14-4.63l3.06-48H10.7Z"/><path d="M56.72,4.78H43.59l-.45-2.53a1.28,1.28,0,0,0-1.26-1.12H24.2a1.42,1.42,0,0,0-1.34,1.19l-.37,2.46H9.14A1.65,1.65,0,0,0,7.5,6.42V8.36A1.65,1.65,0,0,0,9.14,10H56.72a1.65,1.65,0,0,0,1.64-1.64V6.42A1.66,1.66,0,0,0,56.72,4.78Z"/></g></svg>